<?xml version="1.0" encoding="utf-8"?>
<!-- Generator: Adobe Illustrator 26.2.1, SVG Export Plug-In . SVG Version: 6.00 Build 0)  -->
<svg version="1.1" id="Layer_1" xmlns="http://www.w3.org/2000/svg" xmlns:xlink="http://www.w3.org/1999/xlink" x="0px" y="0px"
	 viewBox="0 0 16 16" style="enable-background:new 0 0 16 16;" xml:space="preserve">
<style type="text/css">
	.st0{fill:#2E3436;}
</style>
<g>
	<path class="st0" d="M14.5,0H1.5C0.7,0,0,0.7,0,1.5v8.6c0,0.8,0.7,1.5,1.5,1.5H7v2.4H3.6c-0.6,0-1,0.4-1,1c0,0.5,0.4,1,1,1h8.8
		c0.6,0,1-0.5,1-1c0-0.6-0.4-1-1-1H9v-2.4h5.5c0.8,0,1.5-0.7,1.5-1.5V1.5C16,0.7,15.3,0,14.5,0z M15,10.2c0,0.3-0.2,0.5-0.5,0.5H8
		L9.5,1h5C14.8,1,15,1.2,15,1.5V10.2z"/>
</g>
</svg>
