<?xml version="1.0" encoding="UTF-8"?>
<svg height="128px" viewBox="0 0 128 128" width="128px" xmlns="http://www.w3.org/2000/svg" xmlns:xlink="http://www.w3.org/1999/xlink">
    <linearGradient id="a" gradientTransform="matrix(-47.291145 55.311172 55.311172 47.291145 -15953.049805 72098.820312)" gradientUnits="userSpaceOnUse" x1="-895.969971" x2="-894.969971" y1="-475.619995" y2="-475.619995">
        <stop offset="0" stop-color="#251480"/>
        <stop offset="0.00048203" stop-color="#251480"/>
        <stop offset="1" stop-color="#e96bc3"/>
    </linearGradient>
    <linearGradient id="b" gradientTransform="matrix(50.748158 -55.449173 -55.449173 -50.748158 19112.058594 -73718.632813)" gradientUnits="userSpaceOnUse" x1="-895.969971" x2="-894.969971" y1="-475.619995" y2="-475.619995">
        <stop offset="0" stop-color="#ffbe00"/>
        <stop offset="0.00048203" stop-color="#ffbe00"/>
        <stop offset="1" stop-color="#f39060"/>
    </linearGradient>
    <path d="m 18.199219 65.101562 h 91.601562 c 5.597657 0 10.199219 4.597657 10.199219 10.199219 v 30.5 c 0 5.597657 -4.601562 10.199219 -10.199219 10.199219 h -91.601562 c -5.597657 0 -10.199219 -4.601562 -10.199219 -10.199219 v -30.5 c 0 -5.601562 4.601562 -10.199219 10.199219 -10.199219 z m 0 0" fill="#bcbab3"/>
    <path d="m 18.199219 35.199219 h 91.601562 c 5.597657 0 10.199219 4.601562 10.199219 10.199219 v 57.203124 c 0 5.597657 -4.601562 10.199219 -10.199219 10.199219 h -91.601562 c -5.597657 0 -10.199219 -4.601562 -10.199219 -10.199219 v -57.203124 c 0 -5.597657 4.601562 -10.199219 10.199219 -10.199219 z m 0 0" fill="#9a9996"/>
    <path d="m 18.207031 28 h 91.601563 c 5.597656 0 10.199218 4.601562 10.199218 10.199219 l -0.007812 64.402343 c 0 5.597657 -4.601562 10.199219 -10.199219 10.199219 h -91.601562 c -5.597657 0 -10.199219 -4.601562 -10.199219 -10.199219 l 0.007812 -64.402343 c 0 -5.597657 4.597657 -10.199219 10.199219 -10.199219 z m 0 0" fill="#deddda"/>
    <path d="m 18.207031 36.300781 h 91.601563 c 1.398437 0 2.5 1.097657 2.5 2.5 l -0.007813 63.199219 c 0 1.398438 -1.101562 2.5 -2.5 2.5 h -91.601562 c -1.398438 0 -2.5 -1.101562 -2.5 -2.5 l 0.007812 -63.199219 c 0 -1.402343 1.097657 -2.5 2.5 -2.5 z m 0 0"/>
    <path d="m 109.800781 102 h -48.5 l 8.300781 -63.210938 h 40.199219 z m 0 0" fill="url(#a)"/>
    <path d="m 61.300781 102 h -43.101562 v -63.210938 h 51.402343 z m 0 0" fill="url(#b)"/>
    <g fill="#ffffff">
        <path d="m 99.300781 77.09375 l -0.199219 -0.097656 c -1.402343 0.199218 -2.800781 0 -4.203124 -0.300782 c -5.898438 -1.601562 -9.398438 -7.800781 -7.796876 -13.699218 c 0.398438 -1.402344 1 -2.601563 1.898438 -3.800782 v -0.199218 l -0.199219 -0.101563 c -4.699219 0.5 -8.601562 3.800781 -9.902343 8.402344 c -0.796876 3 -0.398438 6.097656 1.101562 8.796875 c 1.5 2.703125 4 4.601562 7 5.402344 c 1 0.300781 2.101562 0.398437 3.101562 0.398437 c 3.597657 0 7 -1.699219 9.199219 -4.597656 z m 0 0"/>
        <path d="m 36.699219 78.296875 c -0.597657 -0.300781 -1.300781 -0.101563 -1.699219 0.398437 l -1.5 2.699219 c -0.300781 0.601563 -0.101562 1.300781 0.398438 1.699219 c 0.203124 0.101562 0.402343 0.203125 0.601562 0.203125 c 0.398438 0 0.800781 -0.203125 1.101562 -0.601563 l 1.5 -2.699218 c 0.398438 -0.601563 0.199219 -1.402344 -0.402343 -1.699219 z m -7.699219 -13.5 l 2.699219 1.5 c 0.199219 0.097656 0.402343 0.199219 0.601562 0.199219 c 0.398438 0 0.800781 -0.199219 1.097657 -0.601563 c 0.300781 -0.597656 0.101562 -1.300781 -0.398438 -1.699219 l -2.699219 -1.5 c -0.601562 -0.300781 -1.300781 -0.101562 -1.699219 0.398438 c -0.300781 0.601562 -0.101562 1.402344 0.398438 1.703125 z m 16.800781 -2.300781 c 0.199219 0.097656 0.398438 0.199218 0.597657 0.199218 c 0.402343 0 0.800781 -0.199218 1.101562 -0.601562 l 1.5 -2.699219 c 0.300781 -0.601562 0.101562 -1.300781 -0.398438 -1.699219 c -0.601562 -0.300781 -1.300781 -0.101562 -1.703124 0.398438 l -1.5 2.699219 c -0.398438 0.703125 -0.199219 1.402343 0.402343 1.703125 z m 7.597657 13.5 l -2.699219 -1.5 c -0.597657 -0.300782 -1.300781 -0.101563 -1.699219 0.398437 c -0.300781 0.601563 -0.101562 1.300781 0.398438 1.699219 l 2.703124 1.5 c 0.199219 0.101562 0.398438 0.203125 0.597657 0.203125 c 0.402343 0 0.800781 -0.203125 1.101562 -0.601563 c 0.398438 -0.601562 0.199219 -1.300781 -0.402343 -1.699218 z m -20 -1 c -0.296876 -0.601563 -1.097657 -0.800782 -1.699219 -0.402344 l -2.597657 1.402344 c -0.601562 0.300781 -0.800781 1.097656 -0.402343 1.699218 c 0.199219 0.398438 0.601562 0.601563 1.101562 0.601563 c 0.199219 0 0.398438 -0.101563 0.597657 -0.203125 l 2.703124 -1.5 c 0.398438 -0.296875 0.597657 -1.097656 0.296876 -1.597656 z m 1.601562 -12.902344 c 0.199219 0.402344 0.601562 0.601562 1.101562 0.601562 c 0.199219 0 0.398438 -0.101562 0.597657 -0.199218 c 0.601562 -0.300782 0.800781 -1.101563 0.402343 -1.703125 l -1.5 -2.699219 c -0.300781 -0.597656 -1.101562 -0.800781 -1.703124 -0.398438 c -0.597657 0.300782 -0.796876 1.097657 -0.398438 1.699219 z m 14.101562 3.800781 c 0.199219 0.402344 0.597657 0.601563 1.097657 0.601563 c 0.199219 0 0.402343 -0.101563 0.601562 -0.199219 l 2.699219 -1.5 c 0.601562 -0.300781 0.800781 -1.101563 0.398438 -1.703125 c -0.296876 -0.597656 -1.097657 -0.796875 -1.699219 -0.398438 l -2.699219 1.5 c -0.5 0.300782 -0.699219 1.101563 -0.398438 1.699219 z m -1.601562 12.800781 c -0.300781 -0.601562 -1.101562 -0.800781 -1.699219 -0.398437 c -0.601562 0.296875 -0.800781 1.097656 -0.402343 1.699219 l 1.5 2.699218 c 0.203124 0.398438 0.601562 0.601563 1.101562 0.601563 c 0.199219 0 0.398438 -0.101563 0.601562 -0.203125 c 0.597657 -0.296875 0.796876 -1.097656 0.398438 -1.699219 z m -15.300781 -8.300781 c 0 -0.699219 -0.5 -1.199219 -1.199219 -1.199219 h -4.300781 c -0.699219 0 -1.199219 0.5 -1.199219 1.199219 s 0.5 1.199219 1.199219 1.199219 h 4.300781 c 0.601562 0 1.199219 -0.5 1.199219 -1.199219 z m 9 -9.097656 c 0.699219 0 1.199219 -0.503906 1.199219 -1.203125 v -4.300781 c 0 -0.699219 -0.5 -1.199219 -1.199219 -1.199219 s -1.199219 0.5 -1.199219 1.199219 v 4.300781 c 0 0.699219 0.601562 1.203125 1.199219 1.203125 z m 14.601562 7.898437 h -4.300781 c -0.699219 0 -1.199219 0.5 -1.199219 1.199219 s 0.5 1.199219 1.199219 1.199219 h 4.300781 c 0.699219 0 1.199219 -0.5 1.199219 -1.199219 c 0.101562 -0.699219 -0.5 -1.199219 -1.199219 -1.199219 z m -14.5 10.300782 c -0.699219 0 -1.199219 0.5 -1.199219 1.199218 v 4.300782 c 0 0.699218 0.5 1.199218 1.199219 1.199218 s 1.199219 -0.5 1.199219 -1.199218 v -4.300782 c 0 -0.699218 -0.601562 -1.199218 -1.199219 -1.199218 z m 0 -15.699219 c -3.601562 0 -6.601562 3 -6.601562 6.597656 c 0 3.601563 3 6.601563 6.601562 6.601563 c 3.597657 0 6.597657 -3 6.597657 -6.601563 c 0 -3.597656 -3 -6.597656 -6.597657 -6.597656 z m 0 0"/>
    </g>
</svg>
