<?xml version="1.0" encoding="UTF-8"?>
<svg height="128px" viewBox="0 0 128 128" width="128px" xmlns="http://www.w3.org/2000/svg" xmlns:xlink="http://www.w3.org/1999/xlink">
    <linearGradient id="a" gradientTransform="matrix(0.5 0 0 1 32.000355 -176.000258)" gradientUnits="userSpaceOnUse" x1="42" x2="42" y1="290" y2="274">
        <stop offset="0" stop-color="#c0bfbc"/>
        <stop offset="1" stop-color="#77767b"/>
    </linearGradient>
    <linearGradient id="b" gradientUnits="userSpaceOnUse" x1="76.000351" x2="76.000351" y1="111.999742" y2="115.999742">
        <stop offset="0" stop-color="#f6f5f4"/>
        <stop offset="1" stop-color="#deddda"/>
    </linearGradient>
    <linearGradient id="c" gradientUnits="userSpaceOnUse" x1="8.0003525" x2="120.0003525" y1="95.999733" y2="95.999733">
        <stop offset="0" stop-color="#77767b"/>
        <stop offset="0.0357143" stop-color="#c0bfbc"/>
        <stop offset="0.0713653" stop-color="#9a9996"/>
        <stop offset="0.928571" stop-color="#9a9996"/>
        <stop offset="0.964286" stop-color="#c0bfbc"/>
        <stop offset="1" stop-color="#77767b"/>
    </linearGradient>
    <linearGradient id="d" gradientUnits="userSpaceOnUse" x1="64.000351" x2="110.745415" y1="84.159607" y2="15.83992">
        <stop offset="0" stop-color="#c061cb"/>
        <stop offset="1" stop-color="#1a5fb4"/>
    </linearGradient>
    <linearGradient id="e" gradientUnits="userSpaceOnUse" x1="17.255297" x2="64.000351" y1="84.159607" y2="15.83992">
        <stop offset="0" stop-color="#f6d32d"/>
        <stop offset="1" stop-color="#ff7800"/>
    </linearGradient>
    <path d="m 49 88 h 30 v 28 h -30 z m 0 0" fill="url(#a)"/>
    <path d="m 42 112 h 44.0625 c 1.9375 0 3.9375 2 3.9375 4 h -52 c 0 -2 2 -4 4 -4 z m 0 0" fill="url(#b)"/>
    <path d="m 16 20 h 96 c 4.417969 0 8 3.582031 8 8 v 60 c 0 4.417969 -3.582031 8 -8 8 h -96 c -4.417969 0 -8 -3.582031 -8 -8 v -60 c 0 -4.417969 3.582031 -8 8 -8 z m 0 0" fill="url(#c)"/>
    <path d="m 16 8 h 96 c 4.417969 0 8 3.582031 8 8 v 68 c 0 4.417969 -3.582031 8 -8 8 h -96 c -4.417969 0 -8 -3.582031 -8 -8 v -68 c 0 -4.417969 3.582031 -8 8 -8 z m 0 0" fill="#deddda"/>
    <path d="m 16 12 h 96 c 2.210938 0 4 1.789062 4 4 v 68 c 0 2.207031 -1.789062 4 -4 4 h -96 c -2.207031 0 -4 -1.792969 -4 -4 v -68 c 0 -2.210938 1.792969 -4 4 -4 z m 0 0" fill="#241f31"/>
    <path d="m 64 15.839844 h 46.746094 v 68.320312 h -46.746094 z m 0 0" fill="url(#d)"/>
    <path d="m 17.253906 15.839844 h 46.746094 v 68.320312 h -46.746094 z m 0 0" fill="url(#e)"/>
    <g fill="#ffffff">
        <path d="m 87.402344 37.394531 c -6.09375 1.050781 -10.542969 6.335938 -10.542969 12.511719 c 0 7.015625 5.683594 12.699219 12.695313 12.699219 c 3.066406 -0.007813 6.023437 -1.121094 8.332031 -3.140625 c -7.035157 -1.8125 -11.953125 -8.15625 -11.960938 -15.421875 c 0.007813 -2.296875 0.511719 -4.5625 1.476563 -6.648438 z m 0 0"/>
        <path d="m 39.722656 35.488281 c -0.503906 0 -0.910156 0.40625 -0.910156 0.910157 v 3.625 c 0 0.503906 0.40625 0.90625 0.910156 0.90625 h 1.8125 c 0.503906 0 0.90625 -0.402344 0.90625 -0.90625 v -3.625 c 0 -0.503907 -0.402344 -0.910157 -0.90625 -0.910157 z m -8.070312 3.347657 c -0.234375 0 -0.460938 0.082031 -0.636719 0.261718 l -1.292969 1.289063 c -0.351562 0.351562 -0.351562 0.921875 0 1.28125 l 2.574219 2.566406 c 0.351563 0.351563 0.921875 0.351563 1.273437 0 l 1.285157 -1.285156 c 0.359375 -0.359375 0.359375 -0.925781 0 -1.28125 l -2.558594 -2.570313 c -0.183594 -0.179687 -0.410156 -0.261718 -0.644531 -0.261718 z m 17.953125 0 c -0.234375 0 -0.460938 0.082031 -0.644531 0.261718 l -2.558594 2.570313 c -0.363282 0.355469 -0.363282 0.921875 0 1.28125 l 1.28125 1.285156 c 0.355468 0.351563 0.921875 0.351563 1.277344 0 l 2.570312 -2.566406 c 0.355469 -0.359375 0.355469 -0.929688 0 -1.28125 l -1.289062 -1.289063 c -0.175782 -0.179687 -0.402344 -0.261718 -0.636719 -0.261718 z m -8.976563 3.921874 c -3.984375 0 -7.257812 3.273438 -7.257812 7.257813 c 0 3.972656 3.273437 7.253906 7.257812 7.253906 c 3.980469 0 7.253906 -3.28125 7.253906 -7.253906 c 0 -3.984375 -3.273437 -7.257813 -7.253906 -7.257813 z m -13.605468 5.429688 c -0.5 0 -0.90625 0.402344 -0.90625 0.90625 v 1.8125 c 0 0.503906 0.40625 0.90625 0.90625 0.90625 h 3.628906 c 0.503906 0 0.90625 -0.402344 0.90625 -0.90625 v -1.8125 c 0 -0.503906 -0.402344 -0.90625 -0.90625 -0.90625 z m 23.578124 0 c -0.5 0 -0.90625 0.402344 -0.90625 0.90625 v 1.8125 c 0 0.503906 0.40625 0.90625 0.90625 0.90625 h 3.628907 c 0.503906 0 0.90625 -0.402344 0.90625 -0.90625 v -1.8125 c 0 -0.503906 -0.402344 -0.90625 -0.90625 -0.90625 z m -17.667968 7.316406 c -0.234375 0 -0.460938 0.085938 -0.636719 0.261719 l -2.574219 2.566406 c -0.351562 0.359375 -0.351562 0.925781 0 1.28125 l 1.292969 1.289063 c 0.351563 0.355468 0.917969 0.355468 1.28125 0 l 2.558594 -2.570313 c 0.359375 -0.355469 0.359375 -0.921875 0 -1.28125 l -1.285157 -1.285156 c -0.175781 -0.175781 -0.402343 -0.261719 -0.636718 -0.261719 z m 15.386718 0 c -0.230468 0 -0.457031 0.085938 -0.636718 0.261719 l -1.28125 1.285156 c -0.363282 0.359375 -0.363282 0.925781 0 1.28125 l 2.558594 2.570313 c 0.359374 0.355468 0.925781 0.355468 1.28125 0 l 1.289062 -1.289063 c 0.355469 -0.355469 0.355469 -0.921875 0 -1.28125 l -2.570312 -2.566406 c -0.179688 -0.175781 -0.40625 -0.261719 -0.640626 -0.261719 z m -8.597656 3.5625 c -0.503906 0 -0.910156 0.40625 -0.910156 0.910156 v 3.625 c 0 0.503907 0.40625 0.90625 0.910156 0.90625 h 1.8125 c 0.503906 0 0.90625 -0.402343 0.90625 -0.90625 v -3.625 c 0 -0.503906 -0.402344 -0.910156 -0.90625 -0.910156 z m 0 0"/>
    </g>
</svg>
