<?xml version="1.0" encoding="UTF-8"?>
<!-- Generator: Adobe Illustrator 26.2.1, SVG Export Plug-In . SVG Version: 6.00 Build 0)  -->
<svg width="127.6" height="127.6" version="1.1" viewBox="0 0 127.6 127.6" xml:space="preserve" xmlns="http://www.w3.org/2000/svg">
<style type="text/css">
	.st0{fill:#BCBAB3;}
	.st1{fill:#9A9996;}
	.st2{fill:#DEDDDA;}
	.st3{fill:url(#SVGID_1_);}
	.st4{fill:url(#SVGID_00000088133459917914452830000015098818156158056114_);}
	.st5{fill:#FFFFFF;}
</style>
<g transform="matrix(1.1393 0 0 1.1393 -9.1143 -9.1143)">
	<path class="st0" d="m18.2 53.5h91.6c5.6 0 10.2 4.6 10.2 10.2v30.5c0 5.6-4.6 10.2-10.2 10.2h-91.6c-5.6 0-10.2-4.6-10.2-10.2v-30.5c0-5.6 4.6-10.2 10.2-10.2z"/>
	<path class="st1" d="m18.2 23.6h91.6c5.6 0 10.2 4.6 10.2 10.2v57.2c0 5.6-4.6 10.2-10.2 10.2h-91.6c-5.6 0-10.2-4.6-10.2-10.2v-57.2c0-5.6 4.6-10.2 10.2-10.2z"/>
	<path class="st2" d="m18.2 23.6h91.6c5.6 0 10.2 4.6 10.2 10.2v57.2c0 5.6-4.6 10.2-10.2 10.2h-91.6c-5.6 0-10.2-4.6-10.2-10.2v-57.2c0-5.6 4.6-10.2 10.2-10.2z"/>
	<path d="m18.2 31.9h91.6c1.4 0 2.5 1.1 2.5 2.5v56c0 1.4-1.1 2.5-2.5 2.5h-91.6c-1.4 0-2.5-1.1-2.5-2.5v-56c0-1.4 1.1-2.5 2.5-2.5z"/>
	
		<linearGradient id="SVGID_1_" x1="-895.97" x2="-894.97" y1="-475.62" y2="-475.62" gradientTransform="matrix(-47.291 55.311 55.311 47.291 -15953 72087)" gradientUnits="userSpaceOnUse">
		<stop stop-color="#251480" offset="0"/>
		<stop stop-color="#251480" offset=".00048203"/>
		<stop stop-color="#E96BC3" offset="1"/>
	</linearGradient>
	<polygon class="st3" points="61.3 90.4 69.6 34.4 109.8 34.4 109.8 90.4" fill="url(#SVGID_1_)"/>
	
		<linearGradient id="SVGID_00000172402698039694198610000003353832082824108457_" x1="-895.97" x2="-894.97" y1="-475.62" y2="-475.62" gradientTransform="matrix(50.748 -55.449 -55.449 -50.748 19112 -73730)" gradientUnits="userSpaceOnUse">
		<stop stop-color="#FFBE00" offset="0"/>
		<stop stop-color="#FFBE00" offset=".00048203"/>
		<stop stop-color="#F39060" offset="1"/>
	</linearGradient>
	<polygon points="18.2 90.4 18.2 34.4 69.6 34.4 61.3 90.4" fill="url(#SVGID_00000172402698039694198610000003353832082824108457_)"/>
	<path class="st5" d="m99.3 69.1-0.2-0.1c-1.4 0.2-2.8 0-4.2-0.3-5.9-1.6-9.4-7.8-7.8-13.7 0.4-1.4 1-2.6 1.9-3.8v-0.2l-0.2-0.1c-4.7 0.5-8.6 3.8-9.9 8.4-0.8 3-0.4 6.1 1.1 8.8s4 4.6 7 5.4c1 0.3 2.1 0.4 3.1 0.4 3.6 0 7-1.7 9.2-4.6z"/>
	<path class="st5" d="m41.3 55.8c-3.6 0-6.6 3-6.6 6.6s3 6.6 6.6 6.6 6.6-3 6.6-6.6-3-6.6-6.6-6.6z"/>
	<path class="st5" d="m41.3 71.5c-0.7 0-1.2 0.5-1.2 1.2v4.3c0 0.7 0.5 1.2 1.2 1.2s1.2-0.5 1.2-1.2v-4.3c0-0.7-0.6-1.2-1.2-1.2z"/>
	<path class="st5" d="m55.8 61.2h-4.3c-0.7 0-1.2 0.5-1.2 1.2s0.5 1.2 1.2 1.2h4.3c0.7 0 1.2-0.5 1.2-1.2 0.1-0.7-0.5-1.2-1.2-1.2z"/>
	<path class="st5" d="m41.2 53.3c0.7 0 1.2-0.5 1.2-1.2v-4.3c0-0.7-0.5-1.2-1.2-1.2s-1.2 0.5-1.2 1.2v4.3c0 0.7 0.6 1.2 1.2 1.2z"/>
	<path class="st5" d="m32.2 62.4c0-0.7-0.5-1.2-1.2-1.2h-4.3c-0.7 0-1.2 0.5-1.2 1.2s0.5 1.2 1.2 1.2h4.3c0.6 0 1.2-0.5 1.2-1.2z"/>
	<path class="st5" d="m47.5 70.7c-0.3-0.6-1.1-0.8-1.7-0.4-0.6 0.3-0.8 1.1-0.4 1.7l1.5 2.7c0.2 0.4 0.6 0.6 1.1 0.6 0.2 0 0.4-0.1 0.6-0.2 0.6-0.3 0.8-1.1 0.4-1.7z"/>
	<path class="st5" d="m49.1 57.9c0.2 0.4 0.6 0.6 1.1 0.6 0.2 0 0.4-0.1 0.6-0.2l2.7-1.5c0.6-0.3 0.8-1.1 0.4-1.7-0.3-0.6-1.1-0.8-1.7-0.4l-2.7 1.5c-0.5 0.3-0.7 1.1-0.4 1.7z"/>
	<path class="st5" d="m35 54.1c0.2 0.4 0.6 0.6 1.1 0.6 0.2 0 0.4-0.1 0.6-0.2 0.6-0.3 0.8-1.1 0.4-1.7l-1.5-2.7c-0.3-0.6-1.1-0.8-1.7-0.4-0.6 0.3-0.8 1.1-0.4 1.7z"/>
	<path class="st5" d="m33.4 67c-0.3-0.6-1.1-0.8-1.7-0.4l-2.6 1.4c-0.6 0.3-0.8 1.1-0.4 1.7 0.2 0.4 0.6 0.6 1.1 0.6 0.2 0 0.4-0.1 0.6-0.2l2.7-1.5c0.4-0.3 0.6-1.1 0.3-1.6z"/>
	<path class="st5" d="m53.4 68-2.7-1.5c-0.6-0.3-1.3-0.1-1.7 0.4-0.3 0.6-0.1 1.3 0.4 1.7l2.7 1.5c0.2 0.1 0.4 0.2 0.6 0.2 0.4 0 0.8-0.2 1.1-0.6 0.4-0.6 0.2-1.3-0.4-1.7z"/>
	<path class="st5" d="m45.8 54.5c0.2 0.1 0.4 0.2 0.6 0.2 0.4 0 0.8-0.2 1.1-0.6l1.5-2.7c0.3-0.6 0.1-1.3-0.4-1.7-0.6-0.3-1.3-0.1-1.7 0.4l-1.5 2.7c-0.4 0.7-0.2 1.4 0.4 1.7z"/>
	<path class="st5" d="m29 56.8 2.7 1.5c0.2 0.1 0.4 0.2 0.6 0.2 0.4 0 0.8-0.2 1.1-0.6 0.3-0.6 0.1-1.3-0.4-1.7l-2.7-1.5c-0.6-0.3-1.3-0.1-1.7 0.4-0.3 0.6-0.1 1.4 0.4 1.7z"/>
	<path class="st5" d="m36.7 70.3c-0.6-0.3-1.3-0.1-1.7 0.4l-1.5 2.7c-0.3 0.6-0.1 1.3 0.4 1.7 0.2 0.1 0.4 0.2 0.6 0.2 0.4 0 0.8-0.2 1.1-0.6l1.5-2.7c0.4-0.6 0.2-1.4-0.4-1.7z"/>
</g>
</svg>
